<mxfile host="65bd71144e">
    <diagram id="dv6YpwWhU3VV_o_QhT1r" name="Page-1">
        <mxGraphModel dx="435" dy="692" grid="1" gridSize="10" guides="1" tooltips="1" connect="1" arrows="1" fold="1" page="1" pageScale="1" pageWidth="827" pageHeight="1169" math="0" shadow="0">
            <root>
                <mxCell id="0"/>
                <mxCell id="1" parent="0"/>
                <mxCell id="5" style="edgeStyle=none;html=1;" edge="1" parent="1" source="2" target="3">
                    <mxGeometry relative="1" as="geometry"/>
                </mxCell>
                <mxCell id="2" value="Start" style="strokeWidth=2;html=1;shape=mxgraph.flowchart.terminator;whiteSpace=wrap;" vertex="1" parent="1">
                    <mxGeometry x="350" y="250" width="100" height="60" as="geometry"/>
                </mxCell>
                <mxCell id="6" style="edgeStyle=none;html=1;" edge="1" parent="1" source="3" target="4">
                    <mxGeometry relative="1" as="geometry"/>
                </mxCell>
                <mxCell id="3" value="Enter food type&lt;br&gt;(sub(0), pizza(1)&lt;br&gt;soup(2))" style="shape=parallelogram;html=1;strokeWidth=2;perimeter=parallelogramPerimeter;whiteSpace=wrap;rounded=1;arcSize=12;size=0.23;" vertex="1" parent="1">
                    <mxGeometry x="335" y="380" width="130" height="70" as="geometry"/>
                </mxCell>
                <mxCell id="11" style="edgeStyle=none;html=1;" edge="1" parent="1" source="4" target="7">
                    <mxGeometry relative="1" as="geometry"/>
                </mxCell>
                <mxCell id="4" value="Enter food &lt;br&gt;input" style="shape=parallelogram;html=1;strokeWidth=2;perimeter=parallelogramPerimeter;whiteSpace=wrap;rounded=1;arcSize=12;size=0.23;" vertex="1" parent="1">
                    <mxGeometry x="345" y="510" width="110" height="60" as="geometry"/>
                </mxCell>
                <mxCell id="12" style="edgeStyle=none;html=1;entryX=0;entryY=0.5;entryDx=0;entryDy=0;" edge="1" parent="1" source="7" target="8">
                    <mxGeometry relative="1" as="geometry"/>
                </mxCell>
                <mxCell id="7" value="let foodString = &quot;nothing&quot;" style="rounded=1;whiteSpace=wrap;html=1;absoluteArcSize=1;arcSize=14;strokeWidth=2;" vertex="1" parent="1">
                    <mxGeometry x="347" y="630" width="106" height="70" as="geometry"/>
                </mxCell>
                <mxCell id="42" style="edgeStyle=orthogonalEdgeStyle;rounded=0;html=1;entryX=0.5;entryY=1;entryDx=0;entryDy=0;entryPerimeter=0;" edge="1" parent="1" source="8" target="9">
                    <mxGeometry relative="1" as="geometry"/>
                </mxCell>
                <mxCell id="8" value="let foodTimeTotal = 0" style="rounded=1;whiteSpace=wrap;html=1;absoluteArcSize=1;arcSize=14;strokeWidth=2;" vertex="1" parent="1">
                    <mxGeometry x="530" y="637.5" width="140" height="55" as="geometry"/>
                </mxCell>
                <mxCell id="43" style="edgeStyle=orthogonalEdgeStyle;rounded=0;html=1;entryX=0;entryY=0.5;entryDx=0;entryDy=0;" edge="1" parent="1" source="9" target="15">
                    <mxGeometry relative="1" as="geometry"/>
                </mxCell>
                <mxCell id="44" style="edgeStyle=orthogonalEdgeStyle;rounded=0;html=1;entryX=0;entryY=0.5;entryDx=0;entryDy=0;" edge="1" parent="1" source="9" target="21">
                    <mxGeometry relative="1" as="geometry"/>
                </mxCell>
                <mxCell id="45" style="edgeStyle=orthogonalEdgeStyle;rounded=0;html=1;entryX=0;entryY=0.5;entryDx=0;entryDy=0;" edge="1" parent="1" source="9" target="14">
                    <mxGeometry relative="1" as="geometry"/>
                </mxCell>
                <mxCell id="9" value="switch&lt;br&gt;(foodSelectedInt.&lt;br&gt;selectedIndex)" style="strokeWidth=2;html=1;shape=mxgraph.flowchart.decision;whiteSpace=wrap;" vertex="1" parent="1">
                    <mxGeometry x="525" y="380" width="150" height="137.5" as="geometry"/>
                </mxCell>
                <mxCell id="29" style="edgeStyle=orthogonalEdgeStyle;rounded=0;html=1;entryX=0;entryY=0.5;entryDx=0;entryDy=0;" edge="1" parent="1" source="14" target="26">
                    <mxGeometry relative="1" as="geometry"/>
                </mxCell>
                <mxCell id="14" value="foodString = &quot;sub&quot;" style="rounded=1;whiteSpace=wrap;html=1;absoluteArcSize=1;arcSize=14;strokeWidth=2;" vertex="1" parent="1">
                    <mxGeometry x="800" y="530" width="115" height="40" as="geometry"/>
                </mxCell>
                <mxCell id="30" style="edgeStyle=orthogonalEdgeStyle;rounded=0;html=1;" edge="1" parent="1" source="15" target="27">
                    <mxGeometry relative="1" as="geometry"/>
                </mxCell>
                <mxCell id="15" value="foodString = &quot;pizza&quot;" style="rounded=1;whiteSpace=wrap;html=1;absoluteArcSize=1;arcSize=14;strokeWidth=2;" vertex="1" parent="1">
                    <mxGeometry x="790" y="428.75" width="115" height="40" as="geometry"/>
                </mxCell>
                <mxCell id="31" style="edgeStyle=orthogonalEdgeStyle;rounded=0;html=1;entryX=0;entryY=0.5;entryDx=0;entryDy=0;" edge="1" parent="1" source="21" target="28">
                    <mxGeometry relative="1" as="geometry"/>
                </mxCell>
                <mxCell id="21" value="foodString = &quot;soup&quot;" style="rounded=1;whiteSpace=wrap;html=1;absoluteArcSize=1;arcSize=14;strokeWidth=2;" vertex="1" parent="1">
                    <mxGeometry x="800" y="322.5" width="115" height="40" as="geometry"/>
                </mxCell>
                <mxCell id="35" style="edgeStyle=orthogonalEdgeStyle;rounded=0;html=1;entryX=0;entryY=0.5;entryDx=0;entryDy=0;" edge="1" parent="1" source="26" target="32">
                    <mxGeometry relative="1" as="geometry"/>
                </mxCell>
                <mxCell id="26" value="foodTimeTotal = 60" style="rounded=1;whiteSpace=wrap;html=1;absoluteArcSize=1;arcSize=14;strokeWidth=2;" vertex="1" parent="1">
                    <mxGeometry x="1020" y="530" width="115" height="40" as="geometry"/>
                </mxCell>
                <mxCell id="34" style="edgeStyle=orthogonalEdgeStyle;rounded=0;html=1;" edge="1" parent="1" source="27" target="32">
                    <mxGeometry relative="1" as="geometry"/>
                </mxCell>
                <mxCell id="27" value="foodTimeTotal = 45" style="rounded=1;whiteSpace=wrap;html=1;absoluteArcSize=1;arcSize=14;strokeWidth=2;" vertex="1" parent="1">
                    <mxGeometry x="1020" y="428.75" width="115" height="40" as="geometry"/>
                </mxCell>
                <mxCell id="33" style="edgeStyle=orthogonalEdgeStyle;rounded=0;html=1;entryX=0;entryY=0.5;entryDx=0;entryDy=0;" edge="1" parent="1" source="28" target="32">
                    <mxGeometry relative="1" as="geometry"/>
                </mxCell>
                <mxCell id="28" value="foodTimeTotal = 105" style="rounded=1;whiteSpace=wrap;html=1;absoluteArcSize=1;arcSize=14;strokeWidth=2;" vertex="1" parent="1">
                    <mxGeometry x="1020" y="322.5" width="115" height="40" as="geometry"/>
                </mxCell>
                <mxCell id="38" style="edgeStyle=orthogonalEdgeStyle;rounded=0;html=1;" edge="1" parent="1" source="32" target="37">
                    <mxGeometry relative="1" as="geometry"/>
                </mxCell>
                <mxCell id="32" value="Calculate&lt;br&gt;&amp;nbsp;foodTimeTotal" style="rounded=1;whiteSpace=wrap;html=1;absoluteArcSize=1;arcSize=14;strokeWidth=2;" vertex="1" parent="1">
                    <mxGeometry x="1241" y="423.75" width="120" height="50" as="geometry"/>
                </mxCell>
                <mxCell id="48" style="edgeStyle=orthogonalEdgeStyle;rounded=0;html=1;" edge="1" parent="1" source="36" target="47">
                    <mxGeometry relative="1" as="geometry"/>
                </mxCell>
                <mxCell id="36" value="const foodTimeSeconfs = foodTimeTotal - (60 * foodTimeMinutes)" style="rounded=1;whiteSpace=wrap;html=1;absoluteArcSize=1;arcSize=14;strokeWidth=2;" vertex="1" parent="1">
                    <mxGeometry x="1690" y="418.75" width="180" height="60" as="geometry"/>
                </mxCell>
                <mxCell id="40" style="edgeStyle=orthogonalEdgeStyle;rounded=0;html=1;entryX=0;entryY=0.5;entryDx=0;entryDy=0;" edge="1" parent="1" source="37" target="36">
                    <mxGeometry relative="1" as="geometry"/>
                </mxCell>
                <mxCell id="37" value="const foodTimeMinutes =&lt;br&gt;&amp;nbsp;Math.Floor(foodTimeTotal / 60)" style="rounded=1;whiteSpace=wrap;html=1;absoluteArcSize=1;arcSize=14;strokeWidth=2;" vertex="1" parent="1">
                    <mxGeometry x="1450" y="411.25" width="160" height="75" as="geometry"/>
                </mxCell>
                <mxCell id="41" value="Stop" style="strokeWidth=2;html=1;shape=mxgraph.flowchart.terminator;whiteSpace=wrap;" vertex="1" parent="1">
                    <mxGeometry x="1370" y="565" width="100" height="60" as="geometry"/>
                </mxCell>
                <mxCell id="50" style="edgeStyle=orthogonalEdgeStyle;rounded=0;html=1;" edge="1" parent="1" source="46" target="41">
                    <mxGeometry relative="1" as="geometry"/>
                </mxCell>
                <mxCell id="46" value="Show &quot;Done.&quot;" style="shape=parallelogram;html=1;strokeWidth=2;perimeter=parallelogramPerimeter;whiteSpace=wrap;rounded=1;arcSize=12;size=0.23;" vertex="1" parent="1">
                    <mxGeometry x="1540" y="565" width="120" height="60" as="geometry"/>
                </mxCell>
                <mxCell id="49" style="edgeStyle=orthogonalEdgeStyle;rounded=0;html=1;entryX=1;entryY=0.5;entryDx=0;entryDy=0;" edge="1" parent="1" source="47" target="46">
                    <mxGeometry relative="1" as="geometry"/>
                </mxCell>
                <mxCell id="47" value="Show &lt;br&gt;&quot;microwave time&quot;" style="shape=parallelogram;html=1;strokeWidth=2;perimeter=parallelogramPerimeter;whiteSpace=wrap;rounded=1;arcSize=12;size=0.23;" vertex="1" parent="1">
                    <mxGeometry x="1712" y="560" width="136" height="70" as="geometry"/>
                </mxCell>
            </root>
        </mxGraphModel>
    </diagram>
</mxfile>